<?xml version="1.0" encoding="utf-8"?>
<!-- Generator: Adobe Illustrator 20.0.0, SVG Export Plug-In . SVG Version: 6.00 Build 0)  -->
<svg version="1.1" id="Layer_1" xmlns="http://www.w3.org/2000/svg" xmlns:xlink="http://www.w3.org/1999/xlink" x="0px" y="0px"
	 viewBox="0 0 105.767 46.144" style="enable-background:new 0 0 105.767 46.144;" xml:space="preserve">
<style type="text/css">
	.st0{fill-rule:evenodd;clip-rule:evenodd;}
	.st1{fill:#F2CA26;}
</style>
<g>
	<path class="st0" d="M91.634,10.769c-0.361,0.089-0.732-0.438-0.343-0.613c0.499-0.224,1.616-0.616,2.289-1.083
		c1.907-1.314,4.522-3.505,6.55-9.072c0.036-0.095-1.131,6.058-6.244,9.679C93,10.307,92.177,10.636,91.634,10.769L91.634,10.769z
		 M92.422,12.355c0.776-0.125,1.964-0.475,3.286-1.156c7.616-3.951,10.121-11.004,10.058-10.895
		c-3.615,6.337-7.558,8.749-10.398,10.183c-1,0.505-2.608,0.913-3.335,1.146C91.466,11.816,91.908,12.439,92.422,12.355
		L92.422,12.355z M92.001,11.547c0.654-0.136,1.653-0.48,2.749-1.139c6.32-3.79,8.151-10.254,8.104-10.154
		c-2.809,5.846-6.067,8.141-8.422,9.516c-0.834,0.485-2.181,0.899-2.791,1.132C91.164,11.084,91.568,11.639,92.001,11.547z"/>
	<path d="M7.38,13.056c0.546-0.956,1.421-1.728,2.624-2.316c1.203-0.587,2.624-0.881,4.264-0.881c1.366,0,2.678,0.164,3.936,0.492
		c1.257,0.328,2.371,0.909,3.341,1.742c0.97,0.834,1.743,1.955,2.316,3.362c0.574,1.408,0.861,3.191,0.861,5.35
		c0,2.269-0.294,4.141-0.882,5.617c-0.588,1.477-1.374,2.645-2.357,3.506s-2.132,1.463-3.444,1.804
		c-1.312,0.342-2.706,0.513-4.182,0.513c-1.148,0-2.173-0.164-3.075-0.492c-0.902-0.328-1.668-0.73-2.296-1.209
		c-0.629-0.479-1.127-0.978-1.497-1.497c-0.369-0.519-0.594-0.97-0.676-1.353l-1.312,3.854H3.608V3.175
		C3.608,1.945,2.405,1.33,0,1.33V0.018h7.38V13.056z M13.981,11.58c-1.312,0-2.413,0.26-3.3,0.779
		c-0.889,0.52-1.613,1.209-2.173,2.07c-0.561,0.861-0.957,1.866-1.189,3.014c-0.232,1.148-0.349,2.351-0.349,3.608
		c0,1.258,0.116,2.459,0.349,3.608c0.232,1.147,0.628,2.152,1.189,3.014c0.56,0.86,1.285,1.552,2.173,2.07
		c0.888,0.52,1.988,0.779,3.3,0.779s2.419-0.26,3.321-0.779c0.902-0.519,1.633-1.21,2.194-2.07c0.56-0.861,0.97-1.866,1.23-3.014
		c0.259-1.148,0.389-2.35,0.389-3.608c0-1.257-0.13-2.46-0.389-3.608c-0.26-1.148-0.67-2.152-1.23-3.014
		c-0.561-0.861-1.292-1.551-2.194-2.07C16.4,11.84,15.293,11.58,13.981,11.58z M29.807,20.436c0,3.115,0.587,5.575,1.763,7.38
		c1.175,1.804,2.911,2.706,5.207,2.706c1.776,0,3.355-0.417,4.736-1.251c1.38-0.833,2.343-2.275,2.89-4.325l1.64,0.615
		c-0.273,0.875-0.649,1.715-1.127,2.521c-0.479,0.807-1.086,1.517-1.825,2.132c-0.738,0.615-1.626,1.106-2.665,1.476
		c-1.039,0.369-2.255,0.554-3.649,0.554c-1.257,0-2.521-0.164-3.792-0.492c-1.271-0.328-2.413-0.908-3.423-1.742
		c-1.012-0.834-1.839-1.975-2.48-3.424c-0.643-1.448-0.963-3.28-0.963-5.494c0-1.64,0.246-3.15,0.738-4.53
		c0.492-1.38,1.203-2.569,2.132-3.567c0.929-0.997,2.071-1.769,3.424-2.316c1.353-0.546,2.89-0.82,4.612-0.82
		c3.225,0,5.671,0.922,7.339,2.768c1.667,1.845,2.501,4.448,2.501,7.811H29.807z M43.008,18.878c0-2.214-0.54-3.983-1.619-5.31
		c-1.08-1.325-2.604-1.988-4.572-1.988c-0.875,0-1.708,0.137-2.501,0.41c-0.793,0.273-1.503,0.697-2.132,1.271
		c-0.629,0.574-1.148,1.326-1.558,2.255s-0.67,2.05-0.779,3.362H43.008z M55.432,28.272c0,1.227,1.217,1.84,3.648,1.84v1.435H48.134
		v-1.435c2.405,0,3.608-0.614,3.608-1.843V3.172c0-1.228-1.203-1.842-3.608-1.842V0.018h7.298V28.272z M67.608,28.272
		c0,1.227,1.216,1.84,3.648,1.84v1.435H60.31v-1.435c2.405,0,3.608-0.614,3.608-1.843V3.172c0-1.228-1.203-1.842-3.608-1.842V0.018
		h7.299V28.272z"/>
	<path class="st1" d="M92.208,28.107c0,1.227,0.41,1.841,1.229,1.841c0.383,0,0.677-0.191,0.882-0.574s0.308-0.806,0.308-1.271
		v-2.788h1.476v2.378c0,1.394-0.239,2.433-0.718,3.116c-0.479,0.683-1.373,1.024-2.686,1.024c-0.629,0-1.161-0.123-1.599-0.369
		s-0.786-0.566-1.045-0.963c-0.261-0.396-0.459-0.841-0.595-1.333c-0.138-0.492-0.232-0.983-0.287-1.476
		c-0.328,0.602-0.793,1.176-1.395,1.722c-0.602,0.547-1.306,1.032-2.111,1.456c-0.807,0.424-1.688,0.758-2.645,1.004
		c-0.957,0.246-1.954,0.369-2.993,0.369c-2.624,0-4.537-0.526-5.739-1.578c-1.203-1.053-1.805-2.521-1.805-4.408
		c0-1.093,0.239-2.015,0.718-2.768c0.478-0.751,1.128-1.379,1.947-1.885c0.82-0.505,1.764-0.916,2.829-1.23
		c1.066-0.314,2.187-0.587,3.362-0.82c1.175-0.232,2.371-0.444,3.588-0.635c1.216-0.191,2.384-0.423,3.505-0.697v-1.271
		c0-1.558-0.41-2.842-1.229-3.854c-0.82-1.011-2.105-1.517-3.854-1.517c-1.667,0-3.055,0.178-4.161,0.533
		c-1.107,0.355-1.935,0.793-2.48,1.312c0.546,0.055,1.024,0.267,1.435,0.636c0.41,0.369,0.615,0.84,0.615,1.415
		c0,0.683-0.219,1.25-0.656,1.701c-0.438,0.451-1.053,0.677-1.845,0.677c-0.793,0-1.401-0.232-1.824-0.697
		c-0.425-0.464-0.636-1.079-0.636-1.845c0-0.601,0.205-1.23,0.615-1.886c0.409-0.656,1.018-1.243,1.824-1.763
		c0.806-0.519,1.79-0.95,2.952-1.292c1.161-0.342,2.507-0.513,4.038-0.513c1.257,0,2.433,0.116,3.526,0.348
		c1.093,0.232,2.043,0.628,2.85,1.187c0.806,0.56,1.441,1.323,1.906,2.292s0.697,2.189,0.697,3.662V28.107z M88.477,19.657
		c-2.159,0.438-4.018,0.854-5.576,1.25c-1.558,0.396-2.843,0.827-3.854,1.292c-1.012,0.465-1.757,1.005-2.234,1.619
		c-0.479,0.615-0.718,1.36-0.718,2.234c0,1.258,0.444,2.194,1.332,2.809c0.889,0.615,2.166,0.923,3.834,0.923
		c0.847,0,1.646-0.103,2.398-0.308s1.441-0.472,2.07-0.8s1.175-0.703,1.641-1.127c0.464-0.424,0.833-0.841,1.106-1.251V19.657z"/>
</g>
<path d="M4.258,40.159c0.294-0.6,0.905-0.899,1.831-0.899c0.301,0,0.591,0.046,0.871,0.14c0.279,0.093,0.527,0.238,0.744,0.437
	c0.216,0.197,0.389,0.451,0.519,0.76c0.129,0.31,0.194,0.68,0.194,1.111c0,0.45-0.072,0.832-0.216,1.144
	c-0.145,0.312-0.334,0.567-0.568,0.765c-0.235,0.198-0.498,0.341-0.79,0.428c-0.292,0.087-0.585,0.131-0.879,0.131
	c-0.325,0-0.613-0.042-0.866-0.126c-0.252-0.084-0.448-0.201-0.586-0.352v1.753c0,0.271,0.333,0.407,0.999,0.407v0.288h-2.61v-0.288
	c0.534,0,0.801-0.135,0.801-0.405v-5.3c0-0.276-0.267-0.414-0.801-0.414v-0.298h1.287L4.258,40.159z M5.977,39.637
	c-0.288,0-0.531,0.057-0.729,0.171c-0.198,0.114-0.355,0.266-0.473,0.454c-0.117,0.189-0.201,0.41-0.252,0.662
	c-0.051,0.252-0.076,0.516-0.076,0.792c0,0.275,0.025,0.54,0.076,0.792c0.051,0.252,0.135,0.473,0.252,0.661
	c0.117,0.189,0.275,0.341,0.473,0.454c0.198,0.114,0.441,0.172,0.729,0.172s0.532-0.058,0.733-0.172
	c0.201-0.113,0.366-0.265,0.495-0.454c0.129-0.188,0.222-0.409,0.279-0.661s0.086-0.517,0.086-0.792c0-0.276-0.029-0.54-0.086-0.792
	s-0.15-0.473-0.279-0.662c-0.129-0.188-0.294-0.34-0.495-0.454S6.265,39.637,5.977,39.637z M11.368,40.357
	c0.12-0.132,0.252-0.26,0.396-0.383c0.144-0.122,0.3-0.23,0.468-0.323c0.168-0.094,0.348-0.167,0.54-0.221s0.399-0.081,0.621-0.081
	c0.432,0,0.762,0.102,0.99,0.306c0.228,0.203,0.342,0.548,0.342,1.032v2.614c0,0.269,0.267,0.403,0.801,0.403v0.315h-2.313v-0.315
	c0.468,0,0.702-0.134,0.702-0.403v-2.56c0-0.377-0.056-0.641-0.167-0.79c-0.111-0.149-0.281-0.225-0.508-0.225
	c-0.174,0-0.353,0.036-0.536,0.107c-0.183,0.072-0.359,0.166-0.526,0.283c-0.168,0.117-0.323,0.251-0.464,0.404
	c-0.141,0.152-0.256,0.312-0.346,0.48v2.299c0,0.27,0.234,0.403,0.702,0.403v0.315H9.766v-0.315c0.528,0,0.792-0.135,0.792-0.404
	v-5.509c0-0.27-0.261-0.404-0.783-0.404v-0.288h1.593V40.357z M19.378,39.259c0.324,0,0.628,0.042,0.914,0.126
	c0.285,0.084,0.536,0.222,0.751,0.414c0.216,0.191,0.385,0.443,0.508,0.756c0.123,0.312,0.185,0.696,0.185,1.151
	c0,0.373-0.054,0.71-0.162,1.013c-0.108,0.304-0.265,0.562-0.472,0.778c-0.207,0.217-0.463,0.383-0.77,0.5s-0.657,0.176-1.053,0.176
	c-0.318,0-0.618-0.041-0.9-0.122s-0.531-0.214-0.747-0.4c-0.216-0.186-0.387-0.429-0.513-0.729
	c-0.126-0.301-0.189-0.669-0.189-1.107c0-0.384,0.051-0.733,0.153-1.049c0.102-0.314,0.253-0.585,0.455-0.81
	c0.201-0.225,0.455-0.397,0.76-0.518C18.604,39.319,18.964,39.259,19.378,39.259z M19.383,39.637c-0.283,0-0.527,0.048-0.731,0.144
	c-0.205,0.097-0.375,0.229-0.51,0.396s-0.236,0.367-0.302,0.599c-0.066,0.23-0.1,0.481-0.1,0.751c0,0.444,0.038,0.813,0.113,1.107
	c0.076,0.294,0.181,0.526,0.316,0.697c0.135,0.171,0.296,0.291,0.482,0.36c0.187,0.068,0.395,0.104,0.623,0.104
	c0.301,0,0.555-0.052,0.763-0.153s0.376-0.244,0.505-0.428c0.129-0.183,0.223-0.398,0.28-0.647s0.086-0.518,0.086-0.806
	c0-0.42-0.04-0.767-0.118-1.04c-0.078-0.272-0.185-0.49-0.32-0.652s-0.296-0.274-0.483-0.337
	C19.801,39.668,19.599,39.637,19.383,39.637z M24.688,39.439h1.224l-0.045,0.522c-0.174-0.036-0.357-0.062-0.549-0.077
	c-0.192-0.015-0.402-0.022-0.63-0.022v3.411c0,0.271,0.15,0.405,0.45,0.405c0.144,0,0.246-0.041,0.306-0.122s0.09-0.175,0.09-0.283
	v-0.612h0.342v0.522c0,0.132-0.01,0.252-0.031,0.36c-0.021,0.107-0.065,0.202-0.131,0.283s-0.159,0.144-0.279,0.188
	s-0.279,0.068-0.477,0.068c-0.366,0-0.638-0.095-0.814-0.284c-0.177-0.188-0.266-0.454-0.266-0.796v-3.142h-0.801v-0.314
	c0.168-0.012,0.322-0.036,0.463-0.072c0.141-0.035,0.259-0.1,0.355-0.192c0.096-0.092,0.171-0.218,0.225-0.375
	c0.054-0.158,0.081-0.366,0.081-0.622v-0.197l0.486-0.062V39.439z M29.746,39.259c0.324,0,0.628,0.042,0.914,0.126
	c0.285,0.084,0.536,0.222,0.751,0.414c0.216,0.191,0.385,0.443,0.508,0.756c0.123,0.312,0.185,0.696,0.185,1.151
	c0,0.373-0.054,0.71-0.162,1.013c-0.108,0.304-0.265,0.562-0.472,0.778c-0.207,0.217-0.463,0.383-0.77,0.5s-0.657,0.176-1.053,0.176
	c-0.318,0-0.618-0.041-0.9-0.122s-0.531-0.214-0.747-0.4c-0.216-0.186-0.387-0.429-0.513-0.729
	c-0.126-0.301-0.189-0.669-0.189-1.107c0-0.384,0.051-0.733,0.153-1.049c0.102-0.314,0.253-0.585,0.455-0.81
	c0.201-0.225,0.455-0.397,0.76-0.518C28.972,39.319,29.332,39.259,29.746,39.259z M29.751,39.637c-0.283,0-0.527,0.048-0.731,0.144
	c-0.205,0.097-0.375,0.229-0.51,0.396s-0.236,0.367-0.302,0.599c-0.066,0.23-0.1,0.481-0.1,0.751c0,0.444,0.038,0.813,0.113,1.107
	c0.076,0.294,0.181,0.526,0.316,0.697c0.135,0.171,0.296,0.291,0.482,0.36c0.187,0.068,0.395,0.104,0.623,0.104
	c0.301,0,0.555-0.052,0.763-0.153s0.376-0.244,0.505-0.428c0.129-0.183,0.223-0.398,0.28-0.647s0.086-0.518,0.086-0.806
	c0-0.42-0.04-0.767-0.118-1.04c-0.078-0.272-0.185-0.49-0.32-0.652s-0.296-0.274-0.483-0.337
	C30.169,39.668,29.967,39.637,29.751,39.637z M34.732,39.961c0.12-0.21,0.312-0.38,0.576-0.509s0.576-0.193,0.936-0.193
	c0.3,0,0.588,0.036,0.864,0.107c0.276,0.072,0.521,0.2,0.733,0.383s0.382,0.429,0.508,0.738c0.126,0.309,0.189,0.7,0.189,1.174
	c0,0.498-0.064,0.909-0.193,1.233s-0.301,0.58-0.518,0.77c-0.216,0.189-0.468,0.321-0.756,0.396
	c-0.288,0.075-0.594,0.113-0.918,0.113c-0.252,0-0.477-0.036-0.675-0.108c-0.198-0.072-0.366-0.16-0.504-0.266
	c-0.138-0.104-0.248-0.214-0.328-0.328c-0.081-0.114-0.131-0.213-0.149-0.297L34.21,44.02h-0.306v-6.228
	c0-0.271-0.264-0.405-0.792-0.405v-0.288h1.62V39.961z M36.181,39.637c-0.288,0-0.529,0.057-0.725,0.171
	c-0.195,0.114-0.354,0.266-0.477,0.454c-0.123,0.189-0.21,0.41-0.261,0.662c-0.051,0.252-0.077,0.516-0.077,0.792
	c0,0.275,0.025,0.54,0.077,0.792c0.051,0.252,0.138,0.473,0.261,0.661c0.123,0.189,0.282,0.341,0.477,0.454
	c0.195,0.114,0.437,0.172,0.725,0.172s0.531-0.058,0.729-0.172c0.198-0.113,0.358-0.265,0.481-0.454
	c0.123-0.188,0.213-0.409,0.27-0.661s0.085-0.517,0.085-0.792c0-0.276-0.028-0.54-0.085-0.792s-0.147-0.473-0.27-0.662
	c-0.123-0.188-0.283-0.34-0.481-0.454C36.712,39.694,36.469,39.637,36.181,39.637z M42.391,39.259c0.324,0,0.628,0.042,0.914,0.126
	c0.285,0.084,0.536,0.222,0.751,0.414c0.216,0.191,0.385,0.443,0.508,0.756c0.123,0.312,0.185,0.696,0.185,1.151
	c0,0.373-0.054,0.71-0.162,1.013c-0.108,0.304-0.265,0.562-0.472,0.778c-0.207,0.217-0.463,0.383-0.77,0.5s-0.657,0.176-1.053,0.176
	c-0.318,0-0.618-0.041-0.9-0.122s-0.531-0.214-0.747-0.4c-0.216-0.186-0.387-0.429-0.513-0.729
	c-0.126-0.301-0.189-0.669-0.189-1.107c0-0.384,0.051-0.733,0.153-1.049c0.102-0.314,0.253-0.585,0.455-0.81
	c0.201-0.225,0.455-0.397,0.76-0.518C41.617,39.319,41.977,39.259,42.391,39.259z M42.396,39.637c-0.283,0-0.527,0.048-0.731,0.144
	c-0.205,0.097-0.375,0.229-0.51,0.396s-0.236,0.367-0.302,0.599c-0.066,0.23-0.1,0.481-0.1,0.751c0,0.444,0.038,0.813,0.113,1.107
	c0.076,0.294,0.181,0.526,0.316,0.697c0.135,0.171,0.296,0.291,0.482,0.36c0.187,0.068,0.395,0.104,0.623,0.104
	c0.301,0,0.555-0.052,0.763-0.153s0.376-0.244,0.505-0.428c0.129-0.183,0.223-0.398,0.28-0.647s0.086-0.518,0.086-0.806
	c0-0.42-0.04-0.767-0.118-1.04c-0.078-0.272-0.185-0.49-0.32-0.652S43.187,39.794,43,39.732
	C42.813,39.668,42.612,39.637,42.396,39.637z M48.574,39.259c0.324,0,0.628,0.042,0.914,0.126c0.285,0.084,0.536,0.222,0.751,0.414
	c0.216,0.191,0.385,0.443,0.508,0.756c0.123,0.312,0.185,0.696,0.185,1.151c0,0.373-0.054,0.71-0.162,1.013
	c-0.108,0.304-0.265,0.562-0.472,0.778c-0.207,0.217-0.463,0.383-0.77,0.5s-0.657,0.176-1.053,0.176c-0.318,0-0.618-0.041-0.9-0.122
	s-0.531-0.214-0.747-0.4c-0.216-0.186-0.387-0.429-0.513-0.729c-0.126-0.301-0.189-0.669-0.189-1.107
	c0-0.384,0.051-0.733,0.153-1.049c0.102-0.314,0.253-0.585,0.455-0.81c0.201-0.225,0.455-0.397,0.76-0.518
	C47.8,39.319,48.16,39.259,48.574,39.259z M48.579,39.637c-0.283,0-0.527,0.048-0.731,0.144c-0.205,0.097-0.375,0.229-0.51,0.396
	s-0.236,0.367-0.302,0.599c-0.066,0.23-0.1,0.481-0.1,0.751c0,0.444,0.038,0.813,0.113,1.107c0.076,0.294,0.181,0.526,0.316,0.697
	c0.135,0.171,0.296,0.291,0.482,0.36c0.187,0.068,0.395,0.104,0.623,0.104c0.301,0,0.555-0.052,0.763-0.153s0.376-0.244,0.505-0.428
	c0.129-0.183,0.223-0.398,0.28-0.647s0.086-0.518,0.086-0.806c0-0.42-0.04-0.767-0.118-1.04c-0.078-0.272-0.185-0.49-0.32-0.652
	s-0.296-0.274-0.483-0.337C48.997,39.668,48.795,39.637,48.579,39.637z M53.884,39.439h1.224l-0.045,0.522
	c-0.174-0.036-0.356-0.062-0.549-0.077c-0.191-0.015-0.402-0.022-0.63-0.022v3.411c0,0.271,0.149,0.405,0.45,0.405
	c0.145,0,0.246-0.041,0.306-0.122s0.091-0.175,0.091-0.283v-0.612h0.342v0.522c0,0.132-0.011,0.252-0.032,0.36
	c-0.021,0.107-0.064,0.202-0.13,0.283c-0.066,0.081-0.159,0.144-0.279,0.188s-0.279,0.068-0.477,0.068
	c-0.367,0-0.638-0.095-0.815-0.284c-0.177-0.188-0.266-0.454-0.266-0.796v-3.142h-0.801v-0.314c0.168-0.012,0.322-0.036,0.463-0.072
	c0.141-0.035,0.259-0.1,0.355-0.192c0.096-0.092,0.171-0.218,0.225-0.375c0.054-0.158,0.081-0.366,0.081-0.622v-0.197l0.486-0.062
	V39.439z M58.06,40.357c0.12-0.132,0.252-0.26,0.396-0.383c0.145-0.122,0.301-0.23,0.469-0.323c0.168-0.094,0.348-0.167,0.54-0.221
	c0.191-0.054,0.398-0.081,0.62-0.081c0.433,0,0.763,0.102,0.99,0.306c0.229,0.203,0.342,0.548,0.342,1.032v2.614
	c0,0.269,0.268,0.403,0.802,0.403v0.315h-2.313v-0.315c0.468,0,0.702-0.134,0.702-0.403v-2.56c0-0.377-0.056-0.641-0.166-0.79
	c-0.111-0.149-0.281-0.225-0.509-0.225c-0.174,0-0.353,0.036-0.536,0.107c-0.183,0.072-0.358,0.166-0.526,0.283
	s-0.322,0.251-0.463,0.404c-0.142,0.152-0.257,0.312-0.347,0.48v2.299c0,0.27,0.233,0.403,0.702,0.403v0.315h-2.305v-0.315
	c0.528,0,0.792-0.135,0.792-0.404v-5.509c0-0.27-0.261-0.404-0.782-0.404v-0.288h1.593V40.357z M67.356,41.158l-0.333,0.063
	c-0.054-0.486-0.229-0.856-0.526-1.111s-0.701-0.383-1.211-0.383c-0.27,0-0.502,0.054-0.697,0.162
	c-0.195,0.107-0.293,0.282-0.293,0.521c0,0.223,0.08,0.389,0.239,0.5c0.158,0.111,0.359,0.199,0.603,0.266
	c0.243,0.065,0.504,0.123,0.783,0.171s0.54,0.121,0.783,0.221c0.243,0.099,0.443,0.238,0.603,0.418
	c0.159,0.181,0.238,0.433,0.238,0.756c0,0.433-0.146,0.763-0.437,0.99c-0.291,0.229-0.718,0.342-1.282,0.342
	c-0.288,0-0.554-0.031-0.796-0.094c-0.243-0.063-0.455-0.17-0.635-0.32c-0.042-0.029-0.089-0.062-0.14-0.094
	c-0.051-0.033-0.098-0.05-0.14-0.05c-0.048,0-0.081,0.014-0.099,0.04c-0.019,0.027-0.033,0.074-0.045,0.14l-0.063,0.324h-0.324
	v-1.845l0.324-0.055c0.03,0.24,0.101,0.458,0.212,0.653c0.11,0.194,0.25,0.362,0.418,0.504c0.168,0.141,0.36,0.249,0.576,0.323
	c0.216,0.075,0.444,0.113,0.685,0.113c0.378,0,0.649-0.07,0.814-0.211s0.247-0.322,0.247-0.544c0-0.168-0.047-0.303-0.14-0.404
	s-0.216-0.184-0.369-0.247c-0.152-0.062-0.327-0.113-0.521-0.152c-0.195-0.039-0.395-0.081-0.599-0.126s-0.403-0.097-0.599-0.157
	c-0.195-0.06-0.369-0.142-0.521-0.247c-0.153-0.104-0.276-0.237-0.369-0.399c-0.094-0.161-0.14-0.368-0.14-0.619
	c0-0.396,0.141-0.704,0.423-0.926s0.696-0.332,1.242-0.332c0.222,0,0.454,0.036,0.697,0.107c0.243,0.072,0.439,0.166,0.59,0.279
	c0.048,0.042,0.097,0.078,0.148,0.108c0.051,0.03,0.101,0.045,0.148,0.045c0.06,0,0.102-0.045,0.126-0.135l0.045-0.315h0.333V41.158
	z"/>
</svg>
